<?xml version="1.0" encoding="UTF-8"?>
<svg width="152px" height="91px" viewBox="0 0 152 91" version="1.1" xmlns="http://www.w3.org/2000/svg" xmlns:xlink="http://www.w3.org/1999/xlink">
    <!-- Generator: Sketch 43.2 (39069) - http://www.bohemiancoding.com/sketch -->
    <title>Honeymoon Location</title>
    <desc>Created with Sketch.</desc>
    <defs>
        <path d="M46.7028912,62 C42.2883611,62 35.7683881,64.0515493 32.1431083,66.580182 L6.56656911,84.419818 C2.93995313,86.9493827 3.58516013,89 8.00287799,89 L151.997122,89 C156.416989,89 157.058711,86.9484507 153.433431,84.419818 L127.856892,66.580182 C124.230276,64.0506173 117.71543,62 113.297109,62 L46.7028912,62 Z" id="path-1"></path>
        <path d="M56.0085154,63 C51.5855345,63 45.0688511,65.0518042 41.4534438,67.5825894 L24.5465562,79.4174106 C20.9309931,81.9483049 21.5773506,84 25.9928553,84 L134.007145,84 C138.421477,84 139.068851,81.9481958 135.453444,79.4174106 L118.546556,67.5825894 C114.930993,65.0516951 108.421945,63 103.991485,63 L56.0085154,63 Z" id="path-2"></path>
    </defs>
    <g id="Page-1" stroke="none" stroke-width="1" fill="none" fill-rule="evenodd">
        <g id="Honeymoon-Location" transform="translate(-4.000000, 2.000000)">
            <g id="Rectangle-543">
                <use fill="#FFFFFF" fill-rule="evenodd" xlink:href="#path-1"></use>
                <path stroke="#713332" stroke-width="3" d="M46.7028912,63.5 L113.297109,63.5 C117.407062,63.5 123.622657,65.4556389 126.998764,67.8104731 L152.575303,85.6501092 C154.997853,87.3398376 154.947666,87.5 151.997122,87.5 L8.00287799,87.5 C5.0526394,87.5 5.00232331,87.3397149 7.42469717,85.6501092 L33.0012364,67.8104731 C36.3753796,65.4570082 42.5959656,63.5 46.7028912,63.5 Z"></path>
            </g>
            <g id="Rectangle-540">
                <use fill="#9FDCD7" fill-rule="evenodd" xlink:href="#path-2"></use>
                <path stroke="#713332" stroke-width="3" d="M56.0085154,64.5 L103.991485,64.5 C108.11173,64.5 114.320916,66.4556243 117.686363,68.8114372 L134.59325,80.6462585 C137.006977,82.335867 136.95518,82.5 134.007145,82.5 L25.9928553,82.5 C23.0441267,82.5 22.9924751,82.3362508 25.4067497,80.6462585 L42.3136373,68.8114372 C45.6768268,66.4572046 51.8931802,64.5 56.0085154,64.5 Z"></path>
            </g>
            <path d="M79.5,69 C79.5,69 102,44.5538239 102,25.5 C102,6.44617613 90,0 79.5,0 C69,0 57,6.44617613 57,25.5 C57,44.5538239 79.5,69 79.5,69 Z" id="Oval-566" stroke="#713332" stroke-width="3" fill="#FBD4D5"></path>
        </g>
    </g>
</svg>