<?xml version="1.0" encoding="UTF-8"?>
<svg width="105px" height="86px" viewBox="0 0 105 86" version="1.1" xmlns="http://www.w3.org/2000/svg" xmlns:xlink="http://www.w3.org/1999/xlink">
    <!-- Generator: Sketch 43.2 (39069) - http://www.bohemiancoding.com/sketch -->
    <title>Wedding Gift </title>
    <desc>Created with Sketch.</desc>
    <defs>
        <rect id="path-1" x="5" y="33" width="94.8897207" height="78.0238095" rx="13.5"></rect>
        <rect id="path-2" x="0" y="26.9047619" width="104.293207" height="31.3888889" rx="7.2"></rect>
        <path d="M8.5,13.787234 L8.5,5.01357786 C8.5,2.2442406 10.6266474,0 13.25,0 C15.8739294,0 18,2.24465527 18,5.01357786 L18,13.787234 L18.7519092,13.787234 C22.4917717,15.9829787 23.5,19.4730404 23.5,21.7468085 C23.5,21.8390255 23.4972285,21.3816106 23.4917719,21.4723404 L3.00819471,22.0212766 L3.00819471,21.4723404 C3.00276015,21.3816222 3,21.8390376 3,21.7468085 C3,19.4776671 6.17807741,13.787234 8.24809081,13.787234 L8.5,13.787234 Z" id="path-3"></path>
        <path d="M0.0086158531,67.105664 C0.0028937276,66.9125631 0,66.7182694 0,66.5228881 L0,32.1345767 C0,25.4908457 3.34489882,20.1032005 7.47104061,20.1032005 L19.2221651,20.1032005 C23.3462649,20.1032005 26.6932058,25.4898311 26.6932058,32.1345767 L26.6932058,66.5228881 C26.6932058,66.7181517 26.6903164,66.9123304 26.6846028,67.1053192 C26.6903094,67.1960758 26.6932058,67.287597 26.6932058,67.3797962 C26.6932058,69.7486156 24.773078,71.6776685 22.4044805,71.6776685 L4.2887253,71.6776685 C1.91970953,71.6776685 0,69.7534455 0,67.3797962 C0,67.2877253 0.00290075532,67.1963187 0.0086158531,67.105664 Z" id="path-4"></path>
        <rect id="path-5" x="1.19320576" y="18.893617" width="24" height="4.08510638" rx="2.04255319"></rect>
    </defs>
    <g id="Page-1" stroke="none" stroke-width="1" fill="none" fill-rule="evenodd">
        <g id="Wedding-Gift-" transform="translate(0.000000, -26.000000)">
            <g id="Rectangle-28">
                <use fill="#AA8DAB" fill-rule="evenodd" xlink:href="#path-1"></use>
                <rect stroke="#713332" stroke-width="3" x="6.5" y="34.5" width="91.8897207" height="75.0238095" rx="13.5"></rect>
            </g>
            <g id="Rectangle-29">
                <use fill="#DAB7DB" fill-rule="evenodd" xlink:href="#path-2"></use>
                <rect stroke="#713332" stroke-width="3" x="1.5" y="28.4047619" width="101.293207" height="28.3888889" rx="7.2"></rect>
            </g>
            <g id="Baby-Bottle" transform="translate(39.000000, 30.000000)">
                <g id="Rectangle-630">
                    <use fill="#F9DD8E" fill-rule="evenodd" xlink:href="#path-3"></use>
                    <path stroke="#713332" stroke-width="3" d="M23.452676,20.0134743 L22.7262295,20.1712582 L22.3041564,20.545865 C22.1506792,20.7911272 22.1506792,20.7911272 22.1506005,20.7912919 C22.0352811,21.0934295 22.0352811,21.0934295 22.0198487,21.1777201 C21.9956945,21.3442993 21.9956945,21.3442993 21.9944773,21.3822909 L23.4917719,21.4723404 L23.452676,20.0134743 Z M4.77103524,20.473496 C5.50627181,18.3494987 7.53122845,15.287234 8.24809081,15.287234 L8.5,15.287234 L10,15.287234 L10,13.787234 L10,5.01357786 C10,3.05525516 11.4735752,1.5 13.25,1.5 C15.0266166,1.5 16.5,3.05527196 16.5,5.01357786 L16.5,13.787234 L16.5,15.287234 L18,15.287234 L18.3280057,15.287234 C20.2217189,16.5078275 21.3573736,18.2131917 21.7938341,20.0173047 L4.77103524,20.473496 Z M4.13310296,20.4905918 L2.96801087,20.5218149 L2.99540674,21.544093 L3.00819471,22.0212766 L4.50819471,22.0212766 L4.50819471,21.5689576 L4.50819471,21.4723404 C4.5043024,21.3447743 4.5043024,21.3447743 4.48031723,21.178738 C4.46499598,21.0947087 4.46499598,21.0947087 4.38867553,20.8767338 C4.35015627,20.7928647 4.35015627,20.7928647 4.35017605,20.7929114 L4.19699892,20.5474081 L4.13310296,20.4905918 L3.77446562,20.1716914 L2.84068274,19.9695931 L2.05715529,20.2992138 L1.80222217,20.5663965 L1.71377856,20.6998821 C1.60896897,20.9130659 1.60896897,20.9130659 1.57156719,21.0238351 C1.53624616,21.1573714 1.53624616,21.1573714 1.52610843,21.2187959 C1.50533351,21.403643 1.50533351,21.403643 1.50558284,21.4362316 C1.50341404,21.512696 1.50341404,21.512696 1.50223351,21.5872832 C1.50122865,21.6603707 1.50122865,21.6603707 1.50062663,21.7118724 C1.50037503,21.7309888 1.50037503,21.7309888 1.50057884,21.7210496 C1.50106994,21.7014766 1.50106994,21.7014766 1.50349553,21.6578867 L2.99540674,21.544093 L4.46397819,21.4320794 C4.49831703,21.6857952 4.49831703,21.6857952 4.49921896,21.7089446 C4.49983209,21.7316639 4.49983209,21.7316639 4.49991622,21.7392656 C4.50001618,21.7516396 4.50001618,21.7516396 4.5,21.7468085 C4.5,21.6901901 4.50278042,21.6308313 4.50819471,21.5689576 C4.53542028,21.2578279 4.6292446,20.8831096 4.77103524,20.473496 L4.13310296,20.4905918 Z M24.9872916,21.5919026 L24.9890665,21.56239 C24.9889818,21.5719026 24.988932,21.5775043 24.9872916,21.5919026 Z M1.64400459,22.0763631 C3.84263153,21.8760825 4.34817916,21.8298738 4.46467321,21.8093737 C4.45925654,21.830454 4.45191364,21.8582161 4.44145236,21.8977683 C4.40416424,22.0081909 4.40416424,22.0081909 4.37521842,22.0744692 L4.29949762,22.2210846 L4.21111138,22.3544828 L3.95626457,22.6215798 L3.17285258,22.9511469 L2.23918565,22.7490768 L1.81676879,22.3734707 C1.66372829,22.1281941 1.66372829,22.1281941 1.66370859,22.1281614 C1.65672447,22.1098049 1.65016627,22.0925678 1.64400459,22.0763631 Z M24.8581774,22.0804536 C24.8353818,22.1299224 24.8353924,22.129902 24.8354583,22.1297756 L24.6820198,22.3750084 L24.2600636,22.7495043 L23.3301491,22.9514784 L22.5471545,22.6243866 L22.2911176,22.3575113 L22.2021546,22.2239287 C22.0966684,22.0103992 22.0966684,22.0103992 22.0590716,21.8995685 C22.0556307,21.886617 22.0525244,21.8749246 22.0497109,21.8643134 L24.8581774,22.0804536 L24.8581774,22.0804536 Z"></path>
                </g>
                <g id="Rectangle-633">
                    <use fill="#FFFFFF" fill-rule="evenodd" xlink:href="#path-4"></use>
                    <path stroke="#713332" stroke-width="3" d="M1.50795771,67.0612343 C1.50265841,66.8824021 1.5,66.7029197 1.5,66.5228881 L1.5,32.1345767 C1.5,26.2135372 4.36268225,21.6032005 7.47104061,21.6032005 L19.2221651,21.6032005 C22.3295109,21.6032005 25.1932058,26.2140288 25.1932058,32.1345767 L25.1932058,66.5228881 C25.1932058,66.7028169 25.1905513,66.8821978 25.1852597,67.0609295 L25.1875592,67.1994504 C25.1913165,67.2592059 25.1932058,67.3193349 25.1932058,67.3797962 C25.1932058,68.922831 23.9420101,70.1776685 22.4044805,70.1776685 L4.2887253,70.1776685 C2.74902001,70.1776685 1.5,68.9259003 1.5,67.3797962 C1.5,67.3195473 1.50188823,67.2596148 1.50564395,67.2000403 L1.50795771,67.0612343 Z"></path>
                </g>
                <g id="Rectangle-632">
                    <use fill="#F9DD8E" fill-rule="evenodd" xlink:href="#path-5"></use>
                    <rect stroke="#713332" stroke-width="3" x="2.69320576" y="20.393617" width="21" height="1.08510638" rx="0.542553191"></rect>
                </g>
            </g>
        </g>
    </g>
</svg>